<svg width="72" height="13" viewBox="0 0 72 13" fill="none" xmlns="http://www.w3.org/2000/svg">
<path d="M10.56 6.216C10.56 7.064 10.4187 7.84267 10.136 8.552C9.85333 9.26133 9.456 9.872 8.944 10.384C8.432 10.896 7.816 11.2933 7.096 11.576C6.376 11.8587 5.576 12 4.696 12H0.288V0.431999H4.696C5.576 0.431999 6.376 0.575999 7.096 0.863999C7.816 1.14667 8.432 1.544 8.944 2.056C9.456 2.56267 9.85333 3.17067 10.136 3.88C10.4187 4.58933 10.56 5.368 10.56 6.216ZM8.352 6.216C8.352 5.58133 8.26667 5.01333 8.096 4.512C7.93067 4.00533 7.688 3.57867 7.368 3.232C7.05333 2.88 6.66933 2.61067 6.216 2.424C5.768 2.23733 5.26133 2.144 4.696 2.144H2.448V10.288H4.696C5.26133 10.288 5.768 10.1947 6.216 10.008C6.66933 9.82133 7.05333 9.55467 7.368 9.208C7.688 8.856 7.93067 8.42933 8.096 7.928C8.26667 7.42133 8.352 6.85067 8.352 6.216ZM15.6705 3.664C16.2785 3.664 16.8305 3.76267 17.3265 3.96C17.8278 4.15733 18.2545 4.43733 18.6065 4.8C18.9638 5.16267 19.2385 5.60533 19.4305 6.128C19.6225 6.65067 19.7185 7.23467 19.7185 7.88C19.7185 8.53067 19.6225 9.11733 19.4305 9.64C19.2385 10.1627 18.9638 10.608 18.6065 10.976C18.2545 11.344 17.8278 11.6267 17.3265 11.824C16.8305 12.0213 16.2785 12.12 15.6705 12.12C15.0572 12.12 14.4998 12.0213 13.9985 11.824C13.4972 11.6267 13.0678 11.344 12.7105 10.976C12.3585 10.608 12.0838 10.1627 11.8865 9.64C11.6945 9.11733 11.5985 8.53067 11.5985 7.88C11.5985 7.23467 11.6945 6.65067 11.8865 6.128C12.0838 5.60533 12.3585 5.16267 12.7105 4.8C13.0678 4.43733 13.4972 4.15733 13.9985 3.96C14.4998 3.76267 15.0572 3.664 15.6705 3.664ZM15.6705 10.6C16.3532 10.6 16.8572 10.3707 17.1825 9.912C17.5132 9.45333 17.6785 8.78133 17.6785 7.896C17.6785 7.01067 17.5132 6.336 17.1825 5.872C16.8572 5.408 16.3532 5.176 15.6705 5.176C14.9772 5.176 14.4625 5.41067 14.1265 5.88C13.7958 6.344 13.6305 7.016 13.6305 7.896C13.6305 8.776 13.7958 9.448 14.1265 9.912C14.4625 10.3707 14.9772 10.6 15.6705 10.6ZM32.8054 3.792L30.1974 12H28.6134C28.432 12 28.3067 11.8827 28.2374 11.648L26.7654 6.904C26.7174 6.744 26.672 6.58667 26.6294 6.432C26.592 6.272 26.56 6.112 26.5334 5.952C26.5014 6.112 26.464 6.27467 26.4214 6.44C26.384 6.6 26.3414 6.76 26.2934 6.92L24.7974 11.648C24.7334 11.8827 24.592 12 24.3734 12H22.8534L20.2534 3.792H21.8294C21.9734 3.792 22.096 3.82667 22.1974 3.896C22.2987 3.96533 22.3654 4.05333 22.3974 4.16L23.5734 8.544C23.632 8.784 23.6827 9.01867 23.7254 9.248C23.7734 9.47733 23.8134 9.70667 23.8454 9.936C23.904 9.70667 23.9654 9.47733 24.0294 9.248C24.0987 9.01867 24.1707 8.784 24.2454 8.544L25.6054 4.144C25.6374 4.03733 25.6987 3.94933 25.7894 3.88C25.8854 3.81067 26 3.776 26.1334 3.776H27.0054C27.144 3.776 27.2614 3.81067 27.3574 3.88C27.4587 3.94933 27.5254 4.03733 27.5574 4.144L28.8774 8.544C28.9467 8.784 29.0107 9.02133 29.0694 9.256C29.1334 9.48533 29.1947 9.71467 29.2534 9.944C29.3227 9.49067 29.4214 9.024 29.5494 8.544L30.7574 4.16C30.7947 4.05333 30.8614 3.96533 30.9574 3.896C31.0534 3.82667 31.168 3.792 31.3014 3.792H32.8054ZM35.7771 4.8C35.9425 4.63467 36.1158 4.48267 36.2971 4.344C36.4838 4.2 36.6785 4.08 36.8811 3.984C37.0891 3.88267 37.3105 3.80533 37.5451 3.752C37.7798 3.69333 38.0358 3.664 38.3131 3.664C38.7611 3.664 39.1585 3.74133 39.5051 3.896C39.8518 4.04533 40.1398 4.25867 40.3691 4.536C40.6038 4.808 40.7798 5.136 40.8971 5.52C41.0198 5.89867 41.0811 6.31733 41.0811 6.776V12H39.1051V6.776C39.1051 6.27467 38.9905 5.888 38.7611 5.616C38.5318 5.33867 38.1825 5.2 37.7131 5.2C37.3718 5.2 37.0518 5.27733 36.7531 5.432C36.4545 5.58667 36.1718 5.79733 35.9051 6.064V12H33.9291V3.792H35.1371C35.3931 3.792 35.5611 3.912 35.6411 4.152L35.7771 4.8ZM44.9604 0.112V12H42.9844V0.112H44.9604ZM50.5611 3.664C51.1691 3.664 51.7211 3.76267 52.2171 3.96C52.7185 4.15733 53.1451 4.43733 53.4971 4.8C53.8545 5.16267 54.1291 5.60533 54.3211 6.128C54.5131 6.65067 54.6091 7.23467 54.6091 7.88C54.6091 8.53067 54.5131 9.11733 54.3211 9.64C54.1291 10.1627 53.8545 10.608 53.4971 10.976C53.1451 11.344 52.7185 11.6267 52.2171 11.824C51.7211 12.0213 51.1691 12.12 50.5611 12.12C49.9478 12.12 49.3905 12.0213 48.8891 11.824C48.3878 11.6267 47.9585 11.344 47.6011 10.976C47.2491 10.608 46.9745 10.1627 46.7771 9.64C46.5851 9.11733 46.4891 8.53067 46.4891 7.88C46.4891 7.23467 46.5851 6.65067 46.7771 6.128C46.9745 5.60533 47.2491 5.16267 47.6011 4.8C47.9585 4.43733 48.3878 4.15733 48.8891 3.96C49.3905 3.76267 49.9478 3.664 50.5611 3.664ZM50.5611 10.6C51.2438 10.6 51.7478 10.3707 52.0731 9.912C52.4038 9.45333 52.5691 8.78133 52.5691 7.896C52.5691 7.01067 52.4038 6.336 52.0731 5.872C51.7478 5.408 51.2438 5.176 50.5611 5.176C49.8678 5.176 49.3531 5.41067 49.0171 5.88C48.6865 6.344 48.5211 7.016 48.5211 7.896C48.5211 8.776 48.6865 9.448 49.0171 9.912C49.3531 10.3707 49.8678 10.6 50.5611 10.6ZM60.4526 8.496C59.882 8.52267 59.402 8.57333 59.0126 8.648C58.6233 8.71733 58.3113 8.808 58.0766 8.92C57.842 9.032 57.674 9.16267 57.5726 9.312C57.4713 9.46133 57.4206 9.624 57.4206 9.8C57.4206 10.1467 57.522 10.3947 57.7246 10.544C57.9326 10.6933 58.202 10.768 58.5326 10.768C58.938 10.768 59.2873 10.696 59.5806 10.552C59.8793 10.4027 60.17 10.1787 60.4526 9.88V8.496ZM55.9246 4.936C56.8686 4.072 58.0046 3.64 59.3326 3.64C59.8126 3.64 60.242 3.72 60.6206 3.88C60.9993 4.03467 61.3193 4.25333 61.5806 4.536C61.842 4.81333 62.0393 5.14667 62.1726 5.536C62.3113 5.92533 62.3806 6.352 62.3806 6.816V12H61.4846C61.298 12 61.154 11.9733 61.0526 11.92C60.9513 11.8613 60.8713 11.7467 60.8126 11.576L60.6366 10.984C60.4286 11.1707 60.226 11.336 60.0286 11.48C59.8313 11.6187 59.626 11.736 59.4126 11.832C59.1993 11.928 58.97 12 58.7246 12.048C58.4846 12.1013 58.218 12.128 57.9246 12.128C57.578 12.128 57.258 12.0827 56.9646 11.992C56.6713 11.896 56.418 11.7547 56.2046 11.568C55.9913 11.3813 55.826 11.1493 55.7086 10.872C55.5913 10.5947 55.5326 10.272 55.5326 9.904C55.5326 9.696 55.5673 9.49067 55.6366 9.288C55.706 9.08 55.818 8.88267 55.9726 8.696C56.1326 8.50933 56.338 8.33333 56.5886 8.168C56.8393 8.00267 57.146 7.85867 57.5086 7.736C57.8766 7.61333 58.3033 7.51467 58.7886 7.44C59.274 7.36 59.8286 7.312 60.4526 7.296V6.816C60.4526 6.26667 60.3353 5.86133 60.1006 5.6C59.866 5.33333 59.5273 5.2 59.0846 5.2C58.7646 5.2 58.498 5.23733 58.2846 5.312C58.0766 5.38667 57.8926 5.472 57.7326 5.568C57.5726 5.65867 57.426 5.74133 57.2926 5.816C57.1646 5.89067 57.0206 5.928 56.8606 5.928C56.722 5.928 56.6046 5.89333 56.5086 5.824C56.4126 5.74933 56.3353 5.664 56.2766 5.568L55.9246 4.936ZM69.3936 5.888C69.1696 5.616 68.9243 5.424 68.6576 5.312C68.3963 5.2 68.1136 5.144 67.8096 5.144C67.511 5.144 67.2416 5.2 67.0016 5.312C66.7616 5.424 66.5563 5.59467 66.3856 5.824C66.215 6.048 66.0843 6.336 65.9936 6.688C65.903 7.03467 65.8576 7.44533 65.8576 7.92C65.8576 8.4 65.895 8.808 65.9696 9.144C66.0496 9.47467 66.1616 9.74667 66.3056 9.96C66.4496 10.168 66.6256 10.32 66.8336 10.416C67.0416 10.5067 67.2736 10.552 67.5296 10.552C67.9403 10.552 68.2896 10.4667 68.5776 10.296C68.8656 10.1253 69.1376 9.88267 69.3936 9.568V5.888ZM71.3696 0.112V12H70.1616C69.9003 12 69.735 11.88 69.6656 11.64L69.4976 10.848C69.167 11.2267 68.7856 11.5333 68.3536 11.768C67.927 12.0027 67.4283 12.12 66.8576 12.12C66.4096 12.12 65.999 12.0267 65.6256 11.84C65.2523 11.6533 64.9296 11.384 64.6576 11.032C64.391 10.6747 64.183 10.2347 64.0336 9.712C63.8896 9.18933 63.8176 8.592 63.8176 7.92C63.8176 7.312 63.9003 6.74667 64.0656 6.224C64.231 5.70133 64.4683 5.248 64.7776 4.864C65.087 4.48 65.4576 4.18133 65.8896 3.968C66.3216 3.74933 66.807 3.64 67.3456 3.64C67.8043 3.64 68.1963 3.712 68.5216 3.856C68.847 4 69.1376 4.19467 69.3936 4.44V0.112H71.3696Z" fill="white"/>
</svg>
